<?xml version="1.0" encoding="UTF-8" standalone="no"?><svg xmlns="http://www.w3.org/2000/svg" xmlns:xlink="http://www.w3.org/1999/xlink" contentStyleType="text/css" height="847px" preserveAspectRatio="none" style="width:1582px;height:847px;background:#FFFFFF;" version="1.1" viewBox="0 0 1582 847" width="1582px" zoomAndPan="magnify"><defs/><g><rect fill="#FFFFFF" height="644" style="stroke:#181818;stroke-width:1.0;" width="10" x="425" y="112.4297"/><rect fill="#FFFFFF" height="464.3359" style="stroke:#181818;stroke-width:1.0;" width="10" x="826" y="292.0938"/><rect fill="#FFFFFF" height="87.3984" style="stroke:#181818;stroke-width:1.0;" width="10" x="1325" y="387.4922"/><rect fill="#FFFFFF" height="29.1328" style="stroke:#181818;stroke-width:1.0;" width="10" x="1507" y="416.625"/><rect fill="none" height="495.6016" style="stroke:#000000;stroke-width:1.5;" width="1565.5" x="10" y="253.8281"/><rect fill="none" height="349.2656" style="stroke:#000000;stroke-width:1.5;" width="1545.5" x="20" y="349.2266"/><line style="stroke:#181818;stroke-width:0.5;stroke-dasharray:5.0,5.0;" x1="49" x2="49" y1="81.2969" y2="766.4297"/><line style="stroke:#181818;stroke-width:0.5;stroke-dasharray:5.0,5.0;" x1="430" x2="430" y1="81.2969" y2="766.4297"/><line style="stroke:#181818;stroke-width:0.5;stroke-dasharray:5.0,5.0;" x1="831" x2="831" y1="81.2969" y2="766.4297"/><line style="stroke:#181818;stroke-width:0.5;stroke-dasharray:5.0,5.0;" x1="1330" x2="1330" y1="81.2969" y2="766.4297"/><line style="stroke:#181818;stroke-width:0.5;stroke-dasharray:5.0,5.0;" x1="1511.5" x2="1511.5" y1="81.2969" y2="766.4297"/><text fill="#000000" font-family="sans-serif" font-size="14" lengthAdjust="spacing" textLength="32" x="30" y="77.9951">Main</text><ellipse cx="49" cy="13.5" fill="#E2E2F0" rx="8" ry="8" style="stroke:#181818;stroke-width:0.5;"/><path d="M49,21.5 L49,48.5 M36,29.5 L62,29.5 M49,48.5 L36,63.5 M49,48.5 L62,63.5 " fill="none" style="stroke:#181818;stroke-width:0.5;"/><text fill="#000000" font-family="sans-serif" font-size="14" lengthAdjust="spacing" textLength="32" x="30" y="778.4248">Main</text><ellipse cx="49" cy="790.2266" fill="#E2E2F0" rx="8" ry="8" style="stroke:#181818;stroke-width:0.5;"/><path d="M49,798.2266 L49,825.2266 M36,806.2266 L62,806.2266 M49,825.2266 L36,840.2266 M49,825.2266 L62,840.2266 " fill="none" style="stroke:#181818;stroke-width:0.5;"/><rect fill="#E2E2F0" height="30.2969" rx="2.5" ry="2.5" style="stroke:#181818;stroke-width:0.5;" width="128" x="366" y="50"/><text fill="#000000" font-family="sans-serif" font-size="14" lengthAdjust="spacing" textLength="114" x="373" y="69.9951">CentroDeportivo</text><rect fill="#E2E2F0" height="30.2969" rx="2.5" ry="2.5" style="stroke:#181818;stroke-width:0.5;" width="128" x="366" y="765.4297"/><text fill="#000000" font-family="sans-serif" font-size="14" lengthAdjust="spacing" textLength="114" x="373" y="785.4248">CentroDeportivo</text><rect fill="#E2E2F0" height="30.2969" rx="2.5" ry="2.5" style="stroke:#181818;stroke-width:0.5;" width="62" x="800" y="50"/><text fill="#000000" font-family="sans-serif" font-size="14" lengthAdjust="spacing" textLength="48" x="807" y="69.9951">Cliente</text><rect fill="#E2E2F0" height="30.2969" rx="2.5" ry="2.5" style="stroke:#181818;stroke-width:0.5;" width="62" x="800" y="765.4297"/><text fill="#000000" font-family="sans-serif" font-size="14" lengthAdjust="spacing" textLength="48" x="807" y="785.4248">Cliente</text><rect fill="#E2E2F0" height="30.2969" rx="2.5" ry="2.5" style="stroke:#181818;stroke-width:0.5;" width="70" x="1295" y="50"/><text fill="#000000" font-family="sans-serif" font-size="14" lengthAdjust="spacing" textLength="56" x="1302" y="69.9951">Reserva</text><rect fill="#E2E2F0" height="30.2969" rx="2.5" ry="2.5" style="stroke:#181818;stroke-width:0.5;" width="70" x="1295" y="765.4297"/><text fill="#000000" font-family="sans-serif" font-size="14" lengthAdjust="spacing" textLength="56" x="1302" y="785.4248">Reserva</text><rect fill="#E2E2F0" height="30.2969" rx="2.5" ry="2.5" style="stroke:#181818;stroke-width:0.5;" width="87" x="1468.5" y="50"/><text fill="#000000" font-family="sans-serif" font-size="14" lengthAdjust="spacing" textLength="73" x="1475.5" y="69.9951">Instalacion</text><rect fill="#E2E2F0" height="30.2969" rx="2.5" ry="2.5" style="stroke:#181818;stroke-width:0.5;" width="87" x="1468.5" y="765.4297"/><text fill="#000000" font-family="sans-serif" font-size="14" lengthAdjust="spacing" textLength="73" x="1475.5" y="785.4248">Instalacion</text><rect fill="#FFFFFF" height="644" style="stroke:#181818;stroke-width:1.0;" width="10" x="425" y="112.4297"/><rect fill="#FFFFFF" height="464.3359" style="stroke:#181818;stroke-width:1.0;" width="10" x="826" y="292.0938"/><rect fill="#FFFFFF" height="87.3984" style="stroke:#181818;stroke-width:1.0;" width="10" x="1325" y="387.4922"/><rect fill="#FFFFFF" height="29.1328" style="stroke:#181818;stroke-width:1.0;" width="10" x="1507" y="416.625"/><polygon fill="#181818" points="413,108.4297,423,112.4297,413,116.4297,417,112.4297" style="stroke:#181818;stroke-width:1.0;"/><line style="stroke:#181818;stroke-width:1.0;" x1="49" x2="419" y1="112.4297" y2="112.4297"/><text fill="#000000" font-family="sans-serif" font-size="13" lengthAdjust="spacing" textLength="357" x="56" y="107.3638">nuevaReserva(Date dia, int idLugar, String dni): Reserva</text><line style="stroke:#181818;stroke-width:1.0;" x1="435" x2="477" y1="141.5625" y2="141.5625"/><line style="stroke:#181818;stroke-width:1.0;" x1="477" x2="477" y1="141.5625" y2="154.5625"/><line style="stroke:#181818;stroke-width:1.0;" x1="436" x2="477" y1="154.5625" y2="154.5625"/><polygon fill="#181818" points="446,150.5625,436,154.5625,446,158.5625,442,154.5625" style="stroke:#181818;stroke-width:1.0;"/><text fill="#000000" font-family="sans-serif" font-size="13" lengthAdjust="spacing" textLength="210" x="442" y="136.4966">buscarCliente(String dni): Cliente</text><line style="stroke:#181818;stroke-width:1.0;" x1="435" x2="477" y1="183.6953" y2="183.6953"/><line style="stroke:#181818;stroke-width:1.0;" x1="477" x2="477" y1="183.6953" y2="196.6953"/><line style="stroke:#181818;stroke-width:1.0;" x1="436" x2="477" y1="196.6953" y2="196.6953"/><polygon fill="#181818" points="446,192.6953,436,196.6953,446,200.6953,442,196.6953" style="stroke:#181818;stroke-width:1.0;"/><text fill="#000000" font-family="sans-serif" font-size="13" lengthAdjust="spacing" textLength="264" x="442" y="178.6294">buscarInstalacion(int idLugar): Instalacion</text><line style="stroke:#181818;stroke-width:1.0;" x1="435" x2="477" y1="225.8281" y2="225.8281"/><line style="stroke:#181818;stroke-width:1.0;" x1="477" x2="477" y1="225.8281" y2="238.8281"/><line style="stroke:#181818;stroke-width:1.0;" x1="436" x2="477" y1="238.8281" y2="238.8281"/><polygon fill="#181818" points="446,234.8281,436,238.8281,446,242.8281,442,238.8281" style="stroke:#181818;stroke-width:1.0;"/><text fill="#000000" font-family="sans-serif" font-size="13" lengthAdjust="spacing" textLength="331" x="442" y="220.7622">validarMaximo(Date dia , Instalacion lugar): boolean</text><path d="M10,253.8281 L74,253.8281 L74,260.9609 L64,270.9609 L10,270.9609 L10,253.8281 " fill="#EEEEEE" style="stroke:#000000;stroke-width:1.5;"/><rect fill="none" height="495.6016" style="stroke:#000000;stroke-width:1.5;" width="1565.5" x="10" y="253.8281"/><text fill="#000000" font-family="sans-serif" font-size="13" font-weight="bold" lengthAdjust="spacing" textLength="19" x="25" y="266.895">alt</text><text fill="#000000" font-family="sans-serif" font-size="11" font-weight="bold" lengthAdjust="spacing" textLength="469" x="89" y="266.0386">[hay menos reservas que maximoDiario para la instalacion de la reserva]</text><polygon fill="#181818" points="814,288.0938,824,292.0938,814,296.0938,818,292.0938" style="stroke:#181818;stroke-width:1.0;"/><line style="stroke:#181818;stroke-width:1.0;" x1="435" x2="820" y1="292.0938" y2="292.0938"/><text fill="#000000" font-family="sans-serif" font-size="13" lengthAdjust="spacing" textLength="372" x="442" y="287.0278">generarReserva(Date dia, Instalacion instalacion): Reserva</text><line style="stroke:#181818;stroke-width:1.0;" x1="836" x2="878" y1="321.2266" y2="321.2266"/><line style="stroke:#181818;stroke-width:1.0;" x1="878" x2="878" y1="321.2266" y2="334.2266"/><line style="stroke:#181818;stroke-width:1.0;" x1="837" x2="878" y1="334.2266" y2="334.2266"/><polygon fill="#181818" points="847,330.2266,837,334.2266,847,338.2266,843,334.2266" style="stroke:#181818;stroke-width:1.0;"/><text fill="#000000" font-family="sans-serif" font-size="13" lengthAdjust="spacing" textLength="181" x="843" y="316.1606">reservaPendiente(): boolean</text><path d="M20,349.2266 L84,349.2266 L84,356.3594 L74,366.3594 L20,366.3594 L20,349.2266 " fill="#EEEEEE" style="stroke:#000000;stroke-width:1.5;"/><rect fill="none" height="349.2656" style="stroke:#000000;stroke-width:1.5;" width="1545.5" x="20" y="349.2266"/><text fill="#000000" font-family="sans-serif" font-size="13" font-weight="bold" lengthAdjust="spacing" textLength="19" x="35" y="362.2935">alt</text><text fill="#000000" font-family="sans-serif" font-size="11" font-weight="bold" lengthAdjust="spacing" textLength="236" x="99" y="361.437">[no tiene ninguna reservaPendiente]</text><polygon fill="#181818" points="1313,383.4922,1323,387.4922,1313,391.4922,1317,387.4922" style="stroke:#181818;stroke-width:1.0;"/><line style="stroke:#181818;stroke-width:1.0;" x1="836" x2="1319" y1="387.4922" y2="387.4922"/><text fill="#000000" font-family="sans-serif" font-size="13" lengthAdjust="spacing" textLength="470" x="843" y="382.4263">generarReserva(Date dia, Instalacion instalacion, Cliente cliente): Reserva</text><polygon fill="#181818" points="1495,412.625,1505,416.625,1495,420.625,1499,416.625" style="stroke:#181818;stroke-width:1.0;"/><line style="stroke:#181818;stroke-width:1.0;" x1="1335" x2="1501" y1="416.625" y2="416.625"/><text fill="#000000" font-family="sans-serif" font-size="13" lengthAdjust="spacing" textLength="153" x="1342" y="411.5591">calcularPrecio() : double</text><polygon fill="#181818" points="1346,441.7578,1336,445.7578,1346,449.7578,1342,445.7578" style="stroke:#181818;stroke-width:1.0;"/><line style="stroke:#181818;stroke-width:1.0;stroke-dasharray:2.0,2.0;" x1="1340" x2="1511" y1="445.7578" y2="445.7578"/><text fill="#000000" font-family="sans-serif" font-size="13" lengthAdjust="spacing" textLength="43" x="1352" y="440.6919">double</text><polygon fill="#181818" points="847,470.8906,837,474.8906,847,478.8906,843,474.8906" style="stroke:#181818;stroke-width:1.0;"/><line style="stroke:#181818;stroke-width:1.0;stroke-dasharray:2.0,2.0;" x1="841" x2="1329" y1="474.8906" y2="474.8906"/><text fill="#000000" font-family="sans-serif" font-size="13" lengthAdjust="spacing" textLength="51" x="853" y="469.8247">Reserva</text><line style="stroke:#181818;stroke-width:1.0;" x1="836" x2="878" y1="504.0234" y2="504.0234"/><line style="stroke:#181818;stroke-width:1.0;" x1="878" x2="878" y1="504.0234" y2="517.0234"/><line style="stroke:#181818;stroke-width:1.0;" x1="837" x2="878" y1="517.0234" y2="517.0234"/><polygon fill="#181818" points="847,513.0234,837,517.0234,847,521.0234,843,517.0234" style="stroke:#181818;stroke-width:1.0;"/><text fill="#000000" font-family="sans-serif" font-size="13" lengthAdjust="spacing" textLength="290" x="843" y="498.9575">agregarReserva(Reserva nuevaReserva): void</text><polygon fill="#181818" points="446,542.1563,436,546.1563,446,550.1563,442,546.1563" style="stroke:#181818;stroke-width:1.0;"/><line style="stroke:#181818;stroke-width:1.0;stroke-dasharray:2.0,2.0;" x1="440" x2="825" y1="546.1563" y2="546.1563"/><text fill="#000000" font-family="sans-serif" font-size="13" lengthAdjust="spacing" textLength="51" x="452" y="541.0903">Reserva</text><line style="stroke:#181818;stroke-width:1.0;" x1="435" x2="477" y1="575.2891" y2="575.2891"/><line style="stroke:#181818;stroke-width:1.0;" x1="477" x2="477" y1="575.2891" y2="588.2891"/><line style="stroke:#181818;stroke-width:1.0;" x1="436" x2="477" y1="588.2891" y2="588.2891"/><polygon fill="#181818" points="446,584.2891,436,588.2891,446,592.2891,442,588.2891" style="stroke:#181818;stroke-width:1.0;"/><text fill="#000000" font-family="sans-serif" font-size="13" lengthAdjust="spacing" textLength="290" x="442" y="570.2231">agregarReserva(Reserva nuevaReserva): void</text><polygon fill="#181818" points="60,613.4219,50,617.4219,60,621.4219,56,617.4219" style="stroke:#181818;stroke-width:1.0;"/><line style="stroke:#181818;stroke-width:1.0;stroke-dasharray:2.0,2.0;" x1="54" x2="424" y1="617.4219" y2="617.4219"/><text fill="#000000" font-family="sans-serif" font-size="13" lengthAdjust="spacing" textLength="51" x="66" y="612.356">Reserva</text><line style="stroke:#000000;stroke-width:1.0;stroke-dasharray:2.0,2.0;" x1="20" x2="1565.5" y1="626.4219" y2="626.4219"/><text fill="#000000" font-family="sans-serif" font-size="11" font-weight="bold" lengthAdjust="spacing" textLength="256" x="25" y="636.6323">[el cliente tiene una reserva pendiente]</text><polygon fill="#181818" points="446,657.3594,436,661.3594,446,665.3594,442,661.3594" style="stroke:#181818;stroke-width:1.0;"/><line style="stroke:#181818;stroke-width:1.0;stroke-dasharray:2.0,2.0;" x1="440" x2="825" y1="661.3594" y2="661.3594"/><text fill="#000000" font-family="sans-serif" font-size="13" lengthAdjust="spacing" textLength="187" x="452" y="656.2935">ExcepecionReservaPendiente</text><polygon fill="#181818" points="60,686.4922,50,690.4922,60,694.4922,56,690.4922" style="stroke:#181818;stroke-width:1.0;"/><line style="stroke:#181818;stroke-width:1.0;stroke-dasharray:2.0,2.0;" x1="54" x2="424" y1="690.4922" y2="690.4922"/><text fill="#000000" font-family="sans-serif" font-size="13" lengthAdjust="spacing" textLength="187" x="66" y="685.4263">ExcepecionReservaPendiente</text><line style="stroke:#000000;stroke-width:1.0;stroke-dasharray:2.0,2.0;" x1="10" x2="1575.5" y1="706.4922" y2="706.4922"/><text fill="#000000" font-family="sans-serif" font-size="11" font-weight="bold" lengthAdjust="spacing" textLength="311" x="15" y="716.7026">[se alcanzo el maximo de reservas para ese dia]</text><polygon fill="#181818" points="60,737.4297,50,741.4297,60,745.4297,56,741.4297" style="stroke:#181818;stroke-width:1.0;"/><line style="stroke:#181818;stroke-width:1.0;stroke-dasharray:2.0,2.0;" x1="54" x2="424" y1="741.4297" y2="741.4297"/><text fill="#000000" font-family="sans-serif" font-size="13" lengthAdjust="spacing" textLength="217" x="66" y="736.3638">ExcepcionMaximoDiarioAlcanzado</text><!--MD5=[c9605273a901271af649783751e0436a]
@startuml
actor Main
Main -> CentroDeportivo: nuevaReserva(Date dia, int idLugar, String dni): Reserva
activate CentroDeportivo
CentroDeportivo -> CentroDeportivo: buscarCliente(String dni): Cliente
CentroDeportivo -> CentroDeportivo: buscarInstalacion(int idLugar): Instalacion
CentroDeportivo -> CentroDeportivo: validarMaximo(Date dia , Instalacion lugar): boolean
alt hay menos reservas que maximoDiario para la instalacion de la reserva
  CentroDeportivo -> Cliente: generarReserva(Date dia, Instalacion instalacion): Reserva
  activate Cliente
  Cliente -> Cliente: reservaPendiente(): boolean
  alt no tiene ninguna reservaPendiente
    Cliente -> Reserva: generarReserva(Date dia, Instalacion instalacion, Cliente cliente): Reserva
    activate Reserva
    Reserva -> Instalacion: calcularPrecio() : double
    activate Instalacion
    Instalacion - -> Reserva: double
    deactivate Instalacion
    Reserva - -> Cliente : Reserva
    deactivate Reserva
    Cliente -> Cliente : agregarReserva(Reserva nuevaReserva): void
    Cliente - -> CentroDeportivo : Reserva
    CentroDeportivo -> CentroDeportivo: agregarReserva(Reserva nuevaReserva): void
    CentroDeportivo - -> Main: Reserva
  else el cliente tiene una reserva pendiente
    Cliente - -> CentroDeportivo : ExcepecionReservaPendiente 
    CentroDeportivo - -> Main : ExcepecionReservaPendiente 
  end
else se alcanzo el maximo de reservas para ese dia
  CentroDeportivo - -> Main: ExcepcionMaximoDiarioAlcanzado
end
deactivate Cliente
deactivate CentroDeportivo
@enduml

PlantUML version 1.2022.7(Mon Aug 22 17:01:30 UTC 2022)
(GPL source distribution)
Java Runtime: OpenJDK Runtime Environment
JVM: OpenJDK 64-Bit Server VM
Default Encoding: UTF-8
Language: en
Country: null
--></g></svg>